<?xml version="1.0" encoding="utf-8"?>
<!-- Generator: Adobe Illustrator 22.1.0, SVG Export Plug-In . SVG Version: 6.00 Build 0)  -->
<svg version="1.1" id="Layer_1" xmlns="http://www.w3.org/2000/svg" xmlns:xlink="http://www.w3.org/1999/xlink" x="0px" y="0px"
	 viewBox="0 0 156 56" style="enable-background:new 0 0 156 56;" xml:space="preserve">
<style type="text/css">
	.st0{fill:#FFFFFF;}
	.st1{enable-background:new    ;}
</style>
<title>Group</title>
<desc>Created with Sketch.</desc>
<g id="Dashboard-comercio">
	<g id="Group">
		<g id="Group-9">
			<path id="Fill-1" class="st0" d="M47.8,16.3h-8.2c-0.8,0-1.4-0.6-1.4-1.4c0-0.8,0.6-1.4,1.4-1.4h8.2c2.9,0,5.3-2.4,5.3-5.2
				c0-2.9-2.4-5.2-5.3-5.2H8.2c-2.9,0-5.3,2.4-5.3,5.2c0,2.9,2.4,5.2,5.3,5.2h6.7c0.8,0,1.4,0.6,1.4,1.4c0,0.8-0.6,1.4-1.4,1.4H8.2
				C3.7,16.3,0,12.6,0,8.1C0,3.7,3.7,0,8.2,0h39.6C52.3,0,56,3.7,56,8.1C56,12.6,52.3,16.3,47.8,16.3"/>
			<path id="Fill-3" class="st0" d="M28,56c-4.5,0-8.2-3.6-8.2-8.1V21.5c0-4.5,3.7-8.1,8.2-8.1c0.8,0,1.4,0.6,1.4,1.4
				c0,0.8-0.6,1.4-1.4,1.4c-2.9,0-5.3,2.4-5.3,5.2v26.3c0,2.9,2.4,5.2,5.3,5.2s5.3-2.4,5.3-5.2v-33c0-2.9-2.4-5.2-5.3-5.2H7.8
				C7,9.6,6.3,8.9,6.3,8.1S7,6.7,7.8,6.7H28c4.5,0,8.2,3.6,8.2,8.1v33C36.2,52.3,32.5,56,28,56"/>
			<path id="Fill-5" class="st0" d="M48.2,9.6h-7.5c-0.8,0-1.4-0.6-1.4-1.4c0-0.8,0.6-1.4,1.4-1.4h7.5c0.8,0,1.4,0.6,1.4,1.4
				C49.7,8.9,49,9.6,48.2,9.6"/>
			<path id="Fill-7" class="st0" d="M28,49.7c-0.8,0-1.4-0.6-1.4-1.4V21.5c0-0.8,0.6-1.4,1.4-1.4s1.4,0.6,1.4,1.4v26.7
				C29.4,49,28.8,49.7,28,49.7"/>
		</g>
		<g class="st1">
			<path class="st0" d="M92.2,26.4h-5.4v14.4h-4.1V26.4h-5.4v-3.5h14.8V26.4z"/>
			<path class="st0" d="M124.3,40.8h-4.3l-1.6-4.1h-6l-1.6,4.1h-4.2l7.3-17.9h2.9L124.3,40.8z M117.1,33.5l-1.8-5.2l-1.7,5.2H117.1z
				"/>
			<path class="st0" d="M148.4,36h-2.8v4.9h-4.2V22.9h7.3c1.8,0,3.5,0.6,4.9,1.8c1.4,1.2,2.1,2.8,2.1,4.8c0,0.7-0.2,1.5-0.5,2.2
				c-0.3,0.7-0.8,1.4-1.3,2.1c-0.6,0.6-1.3,1.2-2.3,1.5C150.7,35.8,149.6,36,148.4,36z M145.6,26.4v6.1h2.6c1.1,0,1.9-0.3,2.5-0.9
				c0.6-0.6,0.9-1.3,0.9-2c0-0.9-0.3-1.7-0.9-2.3s-1.4-0.9-2.3-0.9H145.6z"/>
		</g>
	</g>
</g>
</svg>
